<svg xmlns="http://www.w3.org/2000/svg" version="1.1" xmlns:xlink="http://www.w3.org/1999/xlink" viewBox="0 0 200 200" width="200" height="200"><metadata><rdf:RDF xmlns:rdf="http://www.w3.org/1999/02/22-rdf-syntax-ns#" xmlns:dc="http://purl.org/dc/elements/1.1/"><rdf:Description><dc:creator>RealFaviconGenerator</dc:creator><dc:source>https://realfavicongenerator.net</dc:source></rdf:Description></rdf:RDF></metadata><rect width="200" height="200" fill="url('#gradient')"></rect><defs><linearGradient id="gradient" gradientTransform="rotate(0 0.5 0.5)"><stop offset="0%" stop-color="#000000"></stop><stop offset="100%" stop-color="#000000"></stop></linearGradient></defs><g><g fill="#fcf8f4" transform="matrix(5.387292594091461,0,0,5.387292594091461,29.211327984910994,138.3079066502329)" stroke="#eeebe9" stroke-width="0.2"><path d="M8.94 0L5.91-5.29L4.50-3.75L4.50 0L1.07 0L1.07-14.22L4.50-14.22L4.50-7.95L5.69-9.76L8.76-14.22L13.00-14.22L8.19-7.93L13.00 0L8.94 0ZM25.21-7.60L25.21-1.76Q24.41-0.88 22.89-0.34Q21.37 0.20 19.55 0.20L19.55 0.20Q16.76 0.20 15.09-1.51Q13.42-3.22 13.30-6.27L13.30-6.27L13.29-7.50Q13.29-9.60 14.03-11.17Q14.78-12.73 16.16-13.58Q17.54-14.42 19.36-14.42L19.36-14.42Q22.01-14.42 23.48-13.21Q24.95-11.99 25.20-9.58L25.20-9.58L21.89-9.58Q21.72-10.77 21.13-11.28Q20.55-11.79 19.47-11.79L19.47-11.79Q18.18-11.79 17.48-10.69Q16.78-9.60 16.77-7.57L16.77-7.57L16.77-6.71Q16.77-4.58 17.50-3.51Q18.22-2.44 19.79-2.44L19.79-2.44Q21.12-2.44 21.78-3.04L21.78-3.04L21.78-5.24L19.39-5.24L19.39-7.60L25.21-7.60Z"></path></g></g></svg>